<?xml version="1.0" encoding="UTF-8" standalone="no"?>
<svg
   xmlns:dc="http://purl.org/dc/elements/1.1/"
   xmlns:cc="http://creativecommons.org/ns#"
   xmlns:rdf="http://www.w3.org/1999/02/22-rdf-syntax-ns#"
   xmlns:svg="http://www.w3.org/2000/svg"
   xmlns="http://www.w3.org/2000/svg"
   version="1.1"
   id="svg2"
   xml:space="preserve"
   width="2643.1384"
   height="1077.335"
   viewBox="0 0 2643.1384 1077.335"><metadata
     id="metadata8"><rdf:RDF><cc:Work
         rdf:about=""><dc:format>image/svg+xml</dc:format><dc:type
           rdf:resource="http://purl.org/dc/dcmitype/StillImage" /><dc:title></dc:title></cc:Work></rdf:RDF></metadata><defs
     id="defs6" /><g
     transform="translate(-701.30886,913.29547)"
     id="g4355"><path
       id="path14"
       style="fill:#1e3b65;fill-opacity:1;fill-rule:nonzero;stroke:none"
       d="m 1011.4557,-547.81561 c 29.6211,0 53.9813,-9.72172 73.0823,-29.16695 c 19.0667,-19.40918 28.6154,-44.3623 28.6154,-74.85395 c 0,-32.43095 -10.2534,-58.5718 -30.6935,-78.42435 c -20.4401,-19.85255 -47.2803,-29.77793 -80.4862,-29.77793 l -143.28211,0 l 0,212.22318 z m -13.60392,-257.33345 c 51.87072,0 92.98532,14.00403 123.31112,41.98144 c 30.324,27.97741 45.505,65.50712 45.505,112.58913 c 0,43.17097 -16.0515,79.06778 -48.1868,107.75891 c -29.9222,26.75364 -66.9815,40.11424 -111.1473,40.11424 l -198.06741,0 l 0,-302.44372 l 188.58539,0" /><path
       id="path16"
       style="fill:#1e3b65;fill-opacity:1;fill-rule:nonzero;stroke:none"
       d="m 1246.3827,-502.70534 l 49.392,0 l 0,-302.44372 l -49.392,0 z" /><path
       id="path18"
       style="fill:#1e3b65;fill-opacity:1;fill-rule:nonzero;stroke:none"
       d="m 1656.8917,-734.13765 c -44.1965,-22.80836 -89.1986,-34.23146 -135.0388,-34.23146 c -30.4899,0 -53.8137,3.60464 -69.9967,10.84456 c -16.2191,7.24172 -24.2935,17.26983 -24.2935,30.08432 c 0,13.3606 8.6439,23.11656 25.9336,29.23543 c 12.3315,4.45354 32.5048,7.51207 60.5165,9.17922 c 41.183,2.78639 68.3566,5.03027 81.5261,6.69562 c 37.3279,4.99783 64.907,14.34466 82.7662,27.97741 c 17.8267,13.66519 26.7734,33.00769 26.7734,58.06174 c 0,32.02182 -14.0058,56.80372 -42.0192,74.37814 c -27.9811,17.54198 -68.1908,26.31207 -120.6311,26.31207 c -76.0309,0 -135.2065,-16.99588 -177.4601,-50.95699 l 27.1754,-36.37262 c 46.6441,28.99572 96.9072,43.44312 150.6866,43.44312 c 34.8497,0 61.8917,-4.86086 81.1242,-14.61682 c 18.3963,-9.45136 27.5773,-22.40283 27.5773,-38.82197 c 0,-19.23976 -12.0629,-32.02362 -36.223,-38.44709 c -12.6325,-3.33069 -46.6765,-6.83259 -102.1339,-10.43543 c -49.1222,-3.33249 -83.5682,-10.02811 -103.3396,-20.05802 c -23.0535,-11.69345 -34.5793,-31.34054 -34.5793,-58.91063 c 0,-28.38474 13.101,-50.78578 39.305,-67.23915 c 26.2364,-16.41914 63.2308,-24.64673 110.9778,-24.64673 c 64.2365,0 118.052,14.89077 161.4122,44.70294 l -30.0591,33.82234" /><path
       id="path20"
       style="fill:#1e3b65;fill-opacity:1;fill-rule:nonzero;stroke:none"
       d="m 2002.5316,-663.12264 c 38.166,0 57.2327,-15.57024 57.2327,-46.77561 c 0,-33.41681 -20.1734,-50.14054 -60.5165,-50.14054 l -174.98,0 l 0,96.91615 z m 8.6458,-142.02642 c 30.4934,0 54.6139,8.56643 72.4803,25.69928 c 17.8537,17.13286 26.7734,40.04395 26.7734,68.70084 c 0,30.08432 -9.2801,53.0639 -27.8134,68.94054 c -18.5332,15.87483 -45.4671,23.79423 -80.8899,23.79423 l -177.46,0 l 0,115.30883 l -49.4251,0 l 0,-302.44372 l 236.3347,0" /><path
       id="path22"
       style="fill:#1e3b65;fill-opacity:1;fill-rule:nonzero;stroke:none"
       d="m 2455.4312,-502.70534 l -279.5614,0 l 0,-302.44372 l 49.3871,0 l 0,257.33345 l 230.1743,0 l 0,45.11027" /><path
       id="path24"
       style="fill:#1e3b65;fill-opacity:1;fill-rule:nonzero;stroke:none"
       d="m 2769.3449,-615.49813 l -75.9317,-146.5142 l -76.869,146.5142 z m 112.3746,112.79279 l -54.0515,0 l -34.3342,-67.68072 l -200.7785,0 l -34.3522,67.68072 l -54.0516,0 l 157.685,-302.44372 l 62.1981,0 l 157.6849,302.44372" /><path
       id="path26"
       style="fill:#1e3b65;fill-opacity:1;fill-rule:nonzero;stroke:none"
       d="m 3231.1534,-805.14906 l -163.0559,182.95531 l 0,119.48841 l -49.3836,0 l 0,-119.48841 L 2855.622,-805.14906 l 61.6213,0 l 126.4327,141.24422 l 125.856,-141.24422 l 61.6214,0" /><path
       id="path28"
       style="fill:#1e3b65;fill-opacity:1;fill-rule:nonzero;stroke:none"
       d="M 1205.5007,-246.11986 L 1037.1874,56.324756 l -59.57207,0 L 809.26639,-246.11986 l 57.8496,0 L 1007.4005,5.8767382 L 1147.6516,-246.11986 l 57.8491,0" /><path
       id="path30"
       style="fill:#1e3b65;fill-opacity:1;fill-rule:nonzero;stroke:none"
       d="m 1246.3827,56.324756 l 51.8075,0 l 0,-302.445516 l -51.8075,0 z" /><path
       id="path32"
       style="fill:#1e3b65;fill-opacity:1;fill-rule:nonzero;stroke:none"
       d="m 1670.9696,-175.10665 c -46.3286,-22.81016 -93.5007,-34.23146 -141.5506,-34.23146 c -31.9281,0 -56.409,3.60283 -73.3742,10.84456 c -16.9635,7.23992 -25.465,17.26802 -25.465,30.08252 c 0,13.3606 9.0621,23.11656 27.1862,29.23543 c 12.9605,4.45354 34.1053,7.51387 63.4705,9.17922 c 43.1313,2.78819 71.6152,5.03208 85.4552,6.69742 c 39.1302,4.99603 68.0358,14.34466 86.7204,27.977413 c 18.7225,13.66519 28.0658,33.007688 28.0658,58.061739 c 0,32.0205573 -14.6817,56.803178 -44.0109,74.377961 c -29.3634,17.539457 -71.5125,26.310448 -126.4832,26.310448 c -79.695,0 -141.6876,-16.9975 -186.0157,-50.955732 l 28.4857,-36.375684 c 48.9276,28.9980672 101.5788,43.446185 157.9878,43.446185 c 36.5294,0 64.8763,-4.861217 85.001,-14.6177161 c 19.2812,-9.4502847 28.9416,-22.4031979 28.9416,-38.8205309 c 0,-19.241568 -12.6793,-32.023622 -38.0037,-38.448893 c -13.2416,-3.330687 -48.8933,-6.832595 -107.0235,-10.435432 c -51.5266,-3.330688 -87.5982,-10.028109 -108.3231,-20.056218 c -24.1655,-11.69345 -36.2825,-31.34234 -36.2825,-58.91243 c 0,-28.38474 13.7679,-50.78578 41.2353,-67.24096 c 27.4674,-16.41733 66.2443,-24.64492 116.3307,-24.64492 c 67.3329,0 123.7077,14.89077 169.1928,44.70294 l -31.5406,33.82414" /><path
       id="path34"
       style="fill:#1e3b65;fill-opacity:1;fill-rule:nonzero;stroke:none"
       d="m 1821.4021,56.324756 l 51.8082,0 l 0,-302.445516 l -51.8082,0 z" /><path
       id="path36"
       style="fill:#1e3b65;fill-opacity:1;fill-rule:nonzero;stroke:none"
       d="m 2308.6845,-95.321547 c 0,-35.356113 -15.5342,-64.045443 -46.6134,-86.039153 c -26.759,-18.93517 -59.9866,-28.42078 -99.7205,-28.42078 c -43.4522,0 -78.8137,10.81031 -106.1459,32.3967 c -27.3592,21.58639 -41.0226,48.91677 -41.0226,82.063233 c 0,34.263905 13.3822,61.902482 40.1431,82.909784 c 26.7717,21.0426264 62.4251,31.546908 107.0254,31.546908 c 44.3334,0 79.7995,-10.5718686 106.3873,-31.75039 c 26.6257,-21.144458 39.9466,-48.712745 39.9466,-82.706302 z m 53.9471,0 c 0,49.561997 -21.0007,89.6740709 -63.0146,120.303598 c -36.8394,26.753278 -82.5732,40.112975 -137.2664,40.112975 c -55.2538,0 -101.267,-13.495592 -138.1064,-40.521381 C 1982.2357,-6.05444 1961.2315,-46.0317 1961.2315,-95.321547 c 0,-48.442753 21.2854,-88.283043 63.8904,-119.455963 c 37.4018,-27.29794 83.1356,-40.92889 137.2287,-40.92889 c 54.4138,0 99.9999,13.63095 136.8411,40.92889 c 42.2932,31.17292 63.4399,71.01321 63.4399,119.455963" /><path
       id="path38"
       style="fill:#1e3b65;fill-opacity:1;fill-rule:nonzero;stroke:none"
       d="m 2805.4454,56.324756 l -64.433,0 L 2502.4574,-191.6952 l 0,248.019956 l -51.7717,0 l 0,-302.444616 l 64.3158,0 L 2753.6647,2.0349129 l 0,-248.1547729 l 51.7807,0 l 0,302.444616" /><path
       id="path40"
       style="fill:#1e3b65;fill-opacity:1;fill-rule:nonzero;stroke:none"
       d="m 3183.9686,-175.10665 c -46.3196,-22.81016 -93.5043,-34.23146 -141.5542,-34.23146 c -31.9551,0 -56.3946,3.60283 -73.3724,10.84456 c -16.9959,7.23992 -25.4668,17.26802 -25.4668,30.08252 c 0,13.3606 9.0656,23.11656 27.197,29.23543 c 12.9226,4.45354 34.0819,7.51387 63.4416,9.17922 c 43.1476,2.78819 71.6423,5.03208 85.448,6.69742 c 39.1284,4.99603 68.0376,14.34466 86.7637,27.977413 c 18.6721,13.66519 28.0621,33.007688 28.0621,58.061739 c 0,32.0205573 -14.6889,56.803178 -44.0487,74.377961 c -29.3237,17.539457 -71.48,26.310448 -126.4507,26.310448 c -79.6986,0 -141.7345,-16.9975 -186.0175,-50.955732 l 28.4947,-36.375684 c 48.8789,28.9980672 101.5607,43.446185 157.9373,43.446185 c 36.533,0 64.8835,-4.861217 85.0515,-14.6177161 c 19.2668,-9.4502847 28.8912,-22.4031979 28.8912,-38.8205309 c 0,-19.241568 -12.6343,-32.023622 -37.9749,-38.448893 c -13.229,-3.330687 -48.915,-6.832595 -107.0398,-10.435432 c -51.4923,-3.330688 -87.6108,-10.028109 -108.3194,-20.056218 c -24.1872,-11.69345 -36.2627,-31.34234 -36.2627,-58.91243 c 0,-28.38474 13.7337,-50.78578 41.201,-67.24096 c 27.5034,-16.41733 66.2894,-24.64492 116.3398,-24.64492 c 67.3347,0 123.7473,14.89077 169.1838,44.70294 l -31.5046,33.82414" /><path
       id="path42"
       style="fill:#ed3223;fill-opacity:1;fill-rule:nonzero;stroke:none"
       d="m 817.61131,-313.5861 l -116.30245,0 l 0,-115.33587 l 112.27048,0 l 0,20.24727 l -91.21289,0 l 0,24.93509 l 63.424,0 l 0,20.28511 l -63.424,0 l 0,29.62113 l 95.24486,0 l 0,20.24727" /><path
       id="path44"
       style="fill:#ed3223;fill-opacity:1;fill-rule:nonzero;stroke:none"
       d="m 949.391,-313.5861 l -104.5315,0 l 0,-115.33587 l 21.05759,0 l 0,95.0886 l 83.47391,0 l 0,20.24727" /><path
       id="path46"
       style="fill:#ed3223;fill-opacity:1;fill-rule:nonzero;stroke:none"
       d="m 1088.5499,-313.5861 l -116.30008,0 l 0,-115.33587 l 112.27008,0 l 0,20.24727 l -91.21357,0 l 0,24.93509 l 63.42367,0 l 0,20.28511 l -63.42367,0 l 0,29.62113 l 95.24357,0 l 0,20.24727" /><path
       id="path48"
       style="fill:#ed3223;fill-opacity:1;fill-rule:nonzero;stroke:none"
       d="m 1245.0958,-401.18246 l -19.328,7.1462 c -11.5926,-12.25578 -26.2779,-18.36564 -44.0956,-18.36564 c -15.3341,0 -27.5737,3.76685 -36.7151,11.29694 c -9.1431,7.56794 -13.7138,17.3257 -13.7138,29.27508 c 0,12.37113 4.5707,22.28389 13.7138,29.77433 c 9.1414,7.49224 21.4891,11.21944 37.0756,11.21944 c 18.0322,0 32.7193,-6.26306 44.0937,-18.74953 l 18.1061,10.29665 c -15.9451,19.13343 -36.8592,28.70014 -62.7405,28.70014 c -21.5612,0 -38.9824,-5.72416 -52.2655,-17.1725 c -13.2831,-11.41229 -19.9427,-26.08858 -19.9427,-43.95318 c 0,-18.63238 7.5607,-33.80972 22.6768,-45.56445 c 13.1029,-10.26061 29.23,-15.40803 48.3076,-15.40803 c 26.8167,0 48.4518,10.52735 64.8276,31.50455" /><path
       id="path50"
       style="fill:#ed3223;fill-opacity:1;fill-rule:nonzero;stroke:none"
       d="m 1384.9775,-408.6747 l -51.6563,0 l 0,95.0886 l -21.0925,0 l 0,-95.0886 l -51.6527,0 l 0,-20.24727 l 124.4015,0 l 0,20.24727" /><path
       id="path52"
       style="fill:#ed3223;fill-opacity:1;fill-rule:nonzero;stroke:none"
       d="m 1491.9921,-376.20951 c 12.7424,0 19.1496,-5.26458 19.1496,-15.75228 c 0,-11.14194 -6.8038,-16.71291 -20.3752,-16.71291 l -61.8755,0 l 0,32.46519 z m 43.0502,62.62341 l -24.189,0 l -28.2928,-42.37615 l -53.6695,0 l 0,42.37615 l -21.0565,0 l 0,-115.33587 l 87.3242,0 c 11.4466,0 20.5897,3.30365 27.3935,9.95061 c 6.8037,6.60911 10.1867,15.48373 10.1867,26.62567 c 0,19.13343 -8.9629,30.81247 -26.8888,35.07676 l 29.1922,43.68283" /><path
       id="path54"
       style="fill:#ed3223;fill-opacity:1;fill-rule:nonzero;stroke:none"
       d="m 1678.5953,-371.63703 c 0,-11.91153 -4.5725,-21.70894 -13.7517,-29.39223 c -9.1432,-7.72114 -20.9502,-11.56369 -35.385,-11.56369 c -14.5411,0 -26.4202,3.8804 -35.6355,11.64119 c -9.2134,7.76079 -13.822,17.5564 -13.822,29.31473 c 0,12.29363 4.5347,22.20458 13.5697,29.81398 c 9.035,7.56614 20.9862,11.37084 35.8878,11.37084 c 14.7952,0 26.6743,-3.8047 35.6733,-11.37084 c 8.963,-7.6094 13.4634,-17.52035 13.4634,-29.81398 z m 21.9558,0.11355 c 0,18.86488 -7.5589,34.23326 -22.6768,46.10334 c -12.8866,10.14526 -28.9777,15.21519 -48.3058,15.21519 c -19.3298,0 -35.493,-5.06993 -48.4878,-15.21519 c -15.1178,-11.71688 -22.6768,-27.12311 -22.6768,-46.10334 c 0,-18.74774 7.595,-34.00077 22.8571,-45.7555 c 13.3191,-10.37415 29.4445,-15.60088 48.3075,-15.60088 c 18.7532,0 34.7722,5.22673 48.1256,15.60088 c 15.226,11.87188 22.857,27.12311 22.857,45.7555" /><path
       id="path56"
       style="fill:#ed3223;fill-opacity:1;fill-rule:nonzero;stroke:none"
       d="m 1856.9168,-313.5861 l -31.4253,0 l -73.4661,-96.20244 l 0,96.20244 l -21.0583,0 l 0,-115.33587 l 31.3892,0 l 73.5022,96.24209 l 0,-96.24209 l 21.0583,0 l 0,115.33587" /><path
       id="path58"
       style="fill:#ed3223;fill-opacity:1;fill-rule:nonzero;stroke:none"
       d="m 1893.8481,-313.5861 l 21.0576,0 l 0,-115.33515 l -21.0576,0 z" /><path
       id="path60"
       style="fill:#ed3223;fill-opacity:1;fill-rule:nonzero;stroke:none"
       d="m 2081.0984,-401.18246 l -19.3335,7.1462 c -11.5871,-12.25578 -26.267,-18.36564 -44.092,-18.36564 c -15.3323,0 -27.5719,3.76685 -36.715,11.29694 c -9.1432,7.56794 -13.7139,17.3257 -13.7139,29.27508 c 0,12.37113 4.5707,22.28389 13.7139,29.77433 c 9.1431,7.49224 21.4908,11.21944 37.0755,11.21944 c 18.0376,0 32.7175,-6.26306 44.0901,-18.74953 l 18.108,10.29665 c -15.947,19.13343 -36.8539,28.70014 -62.7388,28.70014 c -21.5612,0 -38.9824,-5.72416 -52.2655,-17.1725 c -13.2813,-11.41229 -19.9409,-26.08858 -19.9409,-43.95318 c 0,-18.63238 7.559,-33.80972 22.6768,-45.56445 c 13.1029,-10.26061 29.2283,-15.40803 48.3058,-15.40803 c 26.8149,0 48.4554,10.52735 64.8295,31.50455" /><path
       id="path62"
       style="fill:#ed3223;fill-opacity:1;fill-rule:nonzero;stroke:none"
       d="m 2244.8842,-358.61346 l -25.6668,-51.05973 l -25.8796,51.05973 z m 46.1736,45.02736 l -23.2138,0 l -12.4126,-24.74225 l -72.6137,0 l -12.454,24.74225 l -23.2121,0 l 58.8926,-115.33587 l 26.1607,0 l 58.8529,115.33587" /><path
       id="path64"
       style="fill:#ed3223;fill-opacity:1;fill-rule:nonzero;stroke:none"
       d="m 2409.6703,-400.41467 c -14.0383,-7.87614 -29.3454,-11.83223 -45.8654,-11.83223 c -23.9997,0 -35.9869,4.57068 -35.9869,13.71385 c 0,5.37993 4.4931,8.87643 13.5336,10.4895 c 12.2666,1.11384 24.5872,2.30697 36.8935,3.5722 c 17.6663,1.88342 30.2663,5.26458 37.7586,10.10561 c 8.3069,5.37812 12.4936,13.60031 12.4936,24.58905 c 0,12.36932 -5.1852,21.93784 -15.5594,28.69834 c -10.3597,6.72446 -25.4127,10.10561 -45.067,10.10561 c -27.7864,0 -49.9603,-6.72446 -66.5867,-20.24726 l 11.4141,-15.94513 c 14.8673,11.14194 33.1465,16.71292 54.8139,16.71292 c 12.1729,0 21.599,-1.65093 28.2929,-4.99423 c 6.6667,-3.30366 10.0119,-7.72294 10.0119,-13.21642 c 0,-6.10806 -4.1057,-10.412 -12.3063,-12.94786 c -4.5725,-1.34453 -11.625,-2.30517 -21.2385,-2.80441 c -15.0134,-0.72994 -24.1872,-1.30668 -27.6152,-1.69058 c -13.3462,-1.38238 -23.1724,-4.41749 -29.5184,-9.18282 c -6.2937,-4.76353 -9.4676,-11.67723 -9.4676,-20.8222 c 0,-10.98875 5.0393,-19.71017 15.2008,-26.16428 c 10.1056,-6.41626 24.3331,-9.64422 42.6123,-9.64422 c 24.3745,0 44.0937,5.61063 59.2134,16.86611 l -13.0272,14.63845" /><path
       id="path66"
       style="fill:#ed3223;fill-opacity:1;fill-rule:nonzero;stroke:none"
       d="m 2552.706,-400.41467 c -14.04,-7.87614 -29.3237,-11.83223 -45.851,-11.83223 c -24.0105,0 -35.9959,4.57068 -35.9959,13.71385 c 0,5.37993 4.5058,8.87643 13.5318,10.4895 c 12.281,1.11384 24.5909,2.30697 36.9007,3.5722 c 17.6808,1.88342 30.279,5.26458 37.7586,10.10561 c 8.3087,5.37812 12.4901,13.60031 12.4901,24.58905 c 0,12.36932 -5.1907,21.93784 -15.554,28.69834 c -10.3634,6.72446 -25.4128,10.10561 -45.058,10.10561 c -27.79,0 -49.964,-6.72446 -66.5904,-20.24726 l 11.3997,-15.94513 c 14.8674,11.14194 33.1609,16.71292 54.8302,16.71292 c 12.1657,0 21.5918,-1.65093 28.2964,-4.99423 c 6.6506,-3.30366 9.9849,-7.72294 9.9849,-13.21642 c 0,-6.10806 -4.0913,-10.412 -12.2919,-12.94786 c -4.5778,-1.34453 -11.6249,-2.30517 -21.2493,-2.80441 c -15.0097,-0.72994 -24.1835,-1.30668 -27.5971,-1.69058 c -13.3588,-1.38238 -23.1851,-4.41749 -29.5202,-9.18282 c -6.3063,-4.76353 -9.4658,-11.67723 -9.4658,-20.8222 c 0,-10.98875 5.0393,-19.71017 15.1863,-26.16428 c 10.1201,-6.41626 24.3332,-9.64422 42.6195,-9.64422 c 24.3674,0 44.1028,5.61063 59.2242,16.86611 l -13.0488,14.63845" /><path
       id="path68"
       style="fill:#ed3223;fill-opacity:1;fill-rule:nonzero;stroke:none"
       d="m 2714.1939,-313.5861 l -116.3037,0 l 0,-115.33587 l 112.2665,0 l 0,20.24727 l -91.1974,0 l 0,24.93509 l 63.4056,0 l 0,20.28511 l -63.4056,0 l 0,29.62113 l 95.2346,0 l 0,20.24727" /><path
       id="path70"
       style="fill:#ed3223;fill-opacity:1;fill-rule:nonzero;stroke:none"
       d="m 2893.0561,-313.5861 l -21.0871,0 l -0.5047,-94.89756 l -54.3219,78.56854 l -54.1056,-79.33633 l -0.5407,0.76779 l 0,94.89756 l -21.0511,0 l 0,-115.33587 l 31.6487,0 l 44.0487,65.23678 l 44.1929,-65.23678 l 31.7208,0 l 0,115.33587" /><path
       id="path72"
       style="fill:#ed3223;fill-opacity:1;fill-rule:nonzero;stroke:none"
       d="m 3017.8127,-333.83337 c 6.7047,0 11.8773,-1.18953 15.5541,-3.61004 c 3.7127,-2.42232 5.5511,-5.64847 5.5511,-9.72172 c 0,-9.75776 -6.4523,-14.63844 -19.3389,-14.63844 l -68.5422,0 l 0,27.9702 z m 1.4058,-48.21566 c 4.9384,0 8.8134,-1.22918 11.6971,-3.68755 c 2.8837,-2.42232 4.2895,-5.76382 4.2895,-9.91456 c 0,-8.68178 -5.0825,-13.02356 -15.2656,-13.02356 l -68.9027,0 l 0,26.62567 z m 23.7186,8.83677 c 11.4808,6.22341 17.2482,15.75048 17.2482,28.5073 c 0,20.7447 -14.1482,31.11886 -42.3726,31.11886 l -87.827,0 l 0,-115.33587 l 88.9084,0 c 11.4448,0 20.4924,2.91976 27.0348,8.79893 c 6.5605,5.87736 9.8587,13.63815 9.8587,23.28237 c 0,9.71991 -4.2715,17.6339 -12.8505,23.62841" /><path
       id="path74"
       style="fill:#ed3223;fill-opacity:1;fill-rule:nonzero;stroke:none"
       d="m 3195.4674,-313.5861 l -104.5345,0 l 0,-115.33587 l 21.0511,0 l 0,95.0886 l 83.4834,0 l 0,20.24727" /><path
       id="path76"
       style="fill:#ed3223;fill-opacity:1;fill-rule:nonzero;stroke:none"
       d="m 3344.4472,-428.92197 l -61.4771,69.96246 l 0,45.37341 l -21.1052,0 l 0,-45.37341 l -61.1527,-69.96246 l 25.7371,0 l 46.2115,52.59711 l 46.2655,-52.59711 l 25.5209,0" /><path
       id="path78"
       style="fill:#1e3b65;fill-opacity:1;fill-rule:nonzero;stroke:none"
       d="m 3337.6705,-502.62784 l -35.9924,0 l 0,-376 l -2566.67144,0 l 0,376 l -33.33311,0 l 0,-410.66763 l 2635.99695,0 l 0,410.66763" /><path
       id="path80"
       style="fill:#1e3b65;fill-opacity:1;fill-rule:nonzero;stroke:none"
       d="m 701.67355,-246.62811 l 33.33311,0 l 0,377.33389 l 2566.67144,0 l 0,-377.33389 l 35.9924,0 l 0,410.66762 l -2635.99695,0 l 0,-410.66762" /></g></svg>