<?xml version="1.0" encoding="UTF-8" standalone="no"?>
<svg
   xmlns:dc="http://purl.org/dc/elements/1.1/"
   xmlns:cc="http://creativecommons.org/ns#"
   xmlns:rdf="http://www.w3.org/1999/02/22-rdf-syntax-ns#"
   xmlns:svg="http://www.w3.org/2000/svg"
   xmlns="http://www.w3.org/2000/svg"
   viewBox="0 0 566.92932 253.34518"
   height="253.34518"
   width="566.92932"
   xml:space="preserve"
   id="svg2"
   version="1.1"><metadata
   id="metadata11"><rdf:RDF><cc:Work
       rdf:about=""><dc:format>image/svg+xml</dc:format><dc:type
         rdf:resource="http://purl.org/dc/dcmitype/StillImage" /><dc:title></dc:title></cc:Work></rdf:RDF></metadata><defs
   id="defs9">
      
      
      
  </defs>
   <g
   id="g4210"><path
     d="m 534.50399,1.3464206 c -28.16134,0.66133 -37.89467,22.8693294 -37.612,37.1386694 c 0.28266,13.98666 13.23066,35.81733 37.516,35.72266 c 24.38133,-0.284 41.20266,-22.68133 26.08133,-31.848 c -16.06533,-6.80266 -10.10933,8.69467 -26.74133,9.16667 c -15.78134,0 -19.27867,-26.74267 -0.0973,-27.68933 c 18.14667,-0.47334 7.84667,15.12133 27.97467,8.41066 c 13.13733,-4.34666 1.04,-31.5613294 -27.12133,-30.9013294 M 493.01736,58.23708 l 0,-42.43199 C 493.30269,6.0717506 487.25203,3.1424206 482.14803,2.8584206 c -5.1,-0.284 -12.188,1.13333 -12.188,12.9466694 l 0,41.39199 c 0.376,11.15067 3.30533,15.49734 11.056,15.49734 c 7.65333,0 11.90533,-3.78 12.00133,-14.45734 m -27.87733,-1.04 l 0,-38.65066 c 0,-10.0186699 -2.83467,-15.8759994 -12.75733,-15.5919994 c -9.924,0.188 -11.05734,5.2893295 -10.86934,26.4586694 c -17.86,-23.0573394 -17.86,-26.4586694 -28.06533,-26.5546694 c -10.208,-0.188 -10.77333,8.4093294 -10.77333,13.3253294 l 0,43.84667 c 0,3.972 0.75466,12.95066 12.09333,12.476 c 11.43467,-0.37867 10.77333,-7.37334 11.62533,-27.12133 c 15.12,19.84533 19.468,27.30933 27.59334,27.02666 c 7.84533,-0.284 10.868,-5.10533 11.15333,-15.21467 m -66.248,-22.86799 C 397.66403,16.46642 380.36936,0.8744206 360.99736,0.7784206 C 341.7187,0.6864206 323.3867,16.46642 323.95337,36.97175 c 0.66133,20.41467 16.25199,38.84267 40.06799,37.14 c 23.816,-1.7 35.81734,-21.924 34.87067,-39.78266 m -23.34267,2.928 c 0.28534,6.804 -3.872,13.22933 -12.568,13.70133 c -8.788,0.38 -14.74133,-6.14133 -15.49733,-13.98667 c -0.66133,-8.12533 6.61467,-12.756 14.268,-12.756 c 7.56,-0.18933 13.516,5.95334 13.79733,13.04134 m -54.14799,-19.94 C 318.1907,10.13575 311.47603,2.2917506 298.8147,2.3864206 l -18.99467,0 c -6.23733,0.756 -10.67866,3.96933 -10.11066,11.9066694 l 0,43.84933 c 0.0933,8.316 3.87333,14.648 13.13466,13.98533 c 9.168,-0.56533 9.64,-7.46533 10.58267,-18.99466 c 6.99467,11.99999 12.57067,23.71999 25.328,18.05066 c 9.73467,-6.52133 5.10533,-12.94667 -2.45733,-26.55466 c 3.49733,-2.36267 10.86933,-15.688 5.104,-27.312 m -24.19334,14.08 l -4.82,0 l 0,-7.56 l 4.632,0 c 4.536,-0.0947 4.72534,6.80266 0.188,7.56 M 255.72137,1.8184206 l -34.77467,0.18933 c -15.40533,0 -14.64933,21.1679994 -0.284,21.1679994 c 6.89733,0.38 6.61333,-0.28266 6.52,2.268 l 0,35.91067 c 0,8.60133 6.99333,11.81333 12.56933,11.436 c 5.764,-0.188 10.96134,-2.26934 10.96134,-11.908 l 0,-33.076 c 0.284,-4.63067 2.08,-3.59067 5.764,-3.59067 c 15.78266,0 15.78266,-22.3973294 -0.756,-22.3973294 m -77.48933,-1.796 C 154.9827,0.6864206 140.99737,21.57042 141.75337,38.86375 c 0.756,17.29467 13.892,35.06 35.05867,35.156 c 20.88533,0.188 47.43999,-21.73733 28.91866,-31.56533 c -15.12,-5.95333 -11.71733,8.6 -26.83866,9.072 c -20.12934,-2.74 -16.916,-29.67333 0.188,-29.48267 c 13.13733,0.28267 12.38133,18.89867 28.44666,9.63734 c 13.04,-9.072 -6.048,-32.5066694 -29.29466,-31.6586694 m -43.66134,2.364 l -25.8952,0 c -8.693203,0 -10.3,3.96933 -10.3,11.3399994 l 0,47.34533 c 0.567197,7.93867 -1.3208,12.664 13.32454,12.664 l 22.96533,0 c 14.55333,-0.18933 14.932,-22.11333 -0.852,-21.83066 l -11.52787,0 c -1.13386,0.37733 -0.94533,-0.28267 -1.32453,-1.13467 l 0,-2.92933 c -0.2812,-1.04134 0.19067,-1.888 1.2312,-1.888 l 10.10947,0 c 8.97973,0 9.64106,-16.63334 0,-16.728 l -10.20574,0 c -1.22813,0.0947 -1.41613,-0.18934 -1.512,-0.94534 l 0,-2.456 c 0,-0.94666 0.37707,-1.41866 1.60827,-1.22933 l 11.81187,0 C 149.78537,24.78375 148.1787,2.2917506 134.5707,2.3864206 M 96.2027,62.11042 C 96.01404,54.74108 92.7063,51.80909 84.2943,51.80909 l -10.77293,0 c -0.188,-0.092 -0.5656,-1.03867 -0.84947,-1.132 l 0,-35.91067 c 0,-8.7879994 -2.6464,-12.9479994 -11.62399,-12.7586694 c -8.9776,0 -11.62387,3.97067 -11.90774,12.7586694 l 0,51.12533 c 0,6.048 2.45827,7.37067 10.3,7.56 l 26.17867,0 c 8.2224,-0.18933 10.8676,-4.064 10.58386,-11.34133 M 22.68067,51.14909 l 0,-4.064 l 0.9444,-1.132 l 10.96133,0 c 5.38813,-0.284 6.61627,-3.97067 6.61627,-7.656 c 0,-3.78 -1.0396,-9.072 -6.61627,-9.072 l -11.90573,0 c -0.37907,-0.284 -0.37907,-0.47334 -0.6624,-0.94534 c 0.28333,-1.13466 0,-2.36266 0.5672,-3.496 c 0.0952,-0.37866 0.37813,-0.568 0.75573,-0.66266 l 12.2848,0 c 5.57667,0.284 11.05787,-3.11734 11.15267,-9.63867 C 46.87187,7.7717511 44.22653,2.9544206 38.55627,2.3864206 l -26.83856,0 c -5.38594,0 -9.45,1.796 -11.71771,7.5599995 L 0,63.15042 c 1.2276,7.93733 4.44011,10.01733 8.59948,10.30133 l 26.27079,0 c 10.58386,0.37867 12.28546,-7.46533 12.0016,-11.34133 c -0.0932,-3.968 -1.7016,-10.488 -11.62134,-10.30133 l -11.34173,0.096 l -1.22813,-0.756"
     style="fill:#ef3120;fill-opacity:1;fill-rule:nonzero;stroke:none"
     id="path14" /><path
     d="m 503.69599,89.23308 c -6.89867,-0.284 -9.168,1.79467 -19.94,17.76801 c -4.25334,-5.19866 -8.6,-17.58001 -17.29467,-17.58001 c -8.69466,-0.188 -17.29466,6.24 -9.45066,18.71201 l 15.12133,22.39694 l 0,17.57906 c 0,7.36934 4.06266,11.43334 10.772,11.43334 c 6.804,0.28386 13.32533,-2.74 13.23333,-11.9052 l 0,-17.39 l 15.49733,-22.11414 c 5.384,-8.410665 -1.04133,-18.71201 -7.93866,-18.90001 m -44.70133,49.99228 l -13.41734,0 c -0.096,-0.19067 -0.18933,-0.56573 -0.18933,-1.04013 l 0,-36.28814 c 0.0933,-17.29334 -22.86933,-18.14534 -23.06,0.188 l 0.19067,44.88814 c -0.37867,8.6 0.84933,12.09733 7.18133,12.28546 l 30.524,0 c 13.8,-0.4724 13.04266,-20.03333 -1.22933,-20.03333 m -47.44,-15.8776 c 8.128,-14.26933 0,-34.11468 -19.46534,-34.11468 l -14.64933,0 c -10.77067,0.47067 -14.07867,4.63067 -14.36267,14.93201 l 0,45.0784 c 0.56667,7.9376 6.80267,10.11094 9.732,10.67614 l 28.44534,0 c 15.31066,0.18946 26.55466,-18.33334 10.3,-36.57187 m -20.22134,-6.23733 l -4.82,0 l 0,-5.668 l 5.00934,0 c 3.4,-0.096 3.78,5.668 -0.18934,5.668 m 1.60667,22.49346 l -6.52133,0 l 0,-5.6708 l 6.70933,-0.28386 c 3.49733,0 2.74133,5.8584 -0.188,5.95466 m -33.172,6.048 l -8.12533,-43.84946 c -0.56667,-5.85868 -2.932,-11.90668 -13.23067,-12.09868 c -10.01866,-0.092 -11.436,15.12268 -20.78933,30.52681 C 307.51066,98.873085 306.09199,89.98908 297.02133,89.89575 c -8.97867,-0.192 -11.05867,6.80133 -12.192,11.90668 l -7.372,43.0932 c -2.07867,9.82973 1.88933,17.3896 11.152,16.82133 c 9.25866,-0.65987 11.33866,-12.28547 12.75733,-20.69587 c 4.064,7.37094 4.53733,20.60107 16.256,19.84374 c 11.81067,-0.75574 11.24267,-8.976 16.44,-20.31707 c 3.308,15.49733 4.34933,21.1692 14.364,21.0744 c 10.30266,-0.28387 13.232,-7.56093 11.34133,-15.97027 m -84.29466,3.212 c 0,-3.78026 -1.60667,-10.20426 -11.624,-10.01613 l -11.244,0.18693 l -1.32534,-1.03906 l 0,-4.06254 l 0.94534,-0.85 l 10.964,0 c 5.28933,-0.47293 6.61466,-4.25253 6.61466,-7.7484 c 0,-3.78026 -1.04266,-9.16826 -6.61466,-9.16826 l -11.90934,0 c -0.28266,-0.284 -0.28266,-0.56667 -0.66133,-1.04 c 0.37867,-1.132 0,-2.36134 0.56533,-3.496 c 0.096,-0.37867 0.47334,-0.568 0.75867,-0.66134 l 12.28267,0 c 5.57866,0.28267 11.05733,-2.932 11.248,-9.63866 c 0,-6.70935 -2.64667,-11.53068 -8.22267,-12.09735 l -26.932,0 c -5.388,0 -9.452,1.79467 -11.624,7.56 l 0,53.20415 c 1.04,7.84373 4.34533,9.9224 8.50533,10.20666 l 26.36534,0 c 10.58533,0.47294 12.192,-7.27493 11.908,-11.34 m -72.768,-40.7308 c 5.2,3.49734 7.46533,6.144 15.972,4.53734 c 8.50533,-1.608 8.03333,-23.81601 -19.94,-24.09868 c -27.31067,-0.188 -32.88667,37.51814 -9.35467,43.47228 c 6.33067,2.36253 15.68667,6.6156 12,10.48746 c -5.00933,5.10574 -11.05333,-14.4572 -24.38133,-5.29053 c -9.73467,9.2604 -1.60667,26.55627 24.948,26.55627 c 14.74533,-0.19067 24.47733,-12.09907 24.57333,-23.4376 c -0.284,-16.34947 -9.356,-20.97987 -21.92533,-25.2332 c -12.56933,-4.064 -6.616,-9.73334 -1.892,-6.99334 m -52.06933,1.608 c 2.26666,2.36134 8.50533,6.42534 14.27066,3.30534 c 5.85734,-3.116 10.20534,-22.86668 -19.184,-24.19201 c -25.13773,-1.04 -36.1008,30.14801 -13.60866,42.71561 c 6.52066,2.74013 19.37133,4.34693 14.64733,10.86986 c -4.44267,4.6292 -11.34,-12.94786 -23.90867,-4.25466 c -11.6256,8.0344 0.8504,28.06666 21.82867,26.45986 c 20.98267,-1.60413 27.312,-14.64786 27.12267,-22.2052 c 0.18933,-18.14586 -11.15067,-23.43746 -22.39734,-26.4628 c -11.05733,-2.93066 -8.22,-13.608 1.22934,-6.236 m -35.72094,33.54774 C 93.55786,96.69708 94.12293,91.02775 83.2568,91.02775 c -10.67867,0.18933 -9.45054,3.40267 -31.65947,54.71734 c -5.29106,9.64014 -1.41813,17.76827 7.55894,17.86147 c 8.98013,0.19067 8.98013,-1.7 13.70413,-9.63853 l 20.69746,0 c 2.17187,3.4 2.45574,9.35413 12.9452,9.35413 c 5.29174,0 16.25374,-3.77973 8.412,-20.03333 m -27.4052,-6.9932 l -8.03333,0 c 3.3068,-9.54587 4.25213,-10.29947 8.03333,0"
     style="fill:#ef3120;fill-opacity:1;fill-rule:nonzero;stroke:none"
     id="path16" /><path
     style="fill:#0b335e;fill-opacity:1;fill-rule:nonzero;stroke:none"
     d="m 217.55599,251.12217 c 1.85467,0.65625 3.08134,-0.0172 3.36267,-1.61719 c 0.14133,-1.14374 0.24133,-2.41458 0.34933,-3.36666 l 0.22534,-1.27968 l 0.32666,-1.85626 c 0.412,-1.98802 0.72934,-3.08542 0.72934,-3.08542 c 0.384,-1.48387 0.756,-2.90254 0.756,-2.90254 l 0.10266,-0.57613 l 0.34267,-1.6036 l 0.31333,-1.4136 c 0.70534,-2.9588 1.11334,-3.876 2.28267,-5.61453 c 0.292,-0.97187 0.616,-1.75627 0.97867,-2.41774 l 0.012,-0.0635 l 1.53733,-2.08707 c 0.352,-0.5984 0.87733,-1.14787 1.396,-1.6344 c 0.368,-0.3468 0.80667,-0.38533 1.05067,-0.0296 c 0.388,0.59627 0.53733,1.84427 -0.24667,6.63587 c -0.056,0.3204 -0.112,0.64013 -0.15733,0.8948 l -3.72267,17.26929 c 0.30667,0.35105 0.76933,0.87761 0.76933,0.87761 c 0.55734,0.33072 1.13734,0.53072 1.13734,0.53072 c 0.288,0.1 0.704,0.19063 0.99466,0.29063 c 1.88667,0.46407 2.70534,0.0146 2.81734,-0.62396 l 5.432,-26.61456 c 0.36666,-1.73227 -0.10134,-3.26667 -1.32534,-4.35627 c -3.13466,-2.812 -7.36666,-1.49733 -9.868,2.564 c -0.204,0.45894 -0.51066,0.8 -0.652,1.2532 l -1.07333,0.15734 l -0.484,-1.09067 c -0.092,-0.1812 -0.19333,-0.2984 -0.42133,-0.4036 c -1.464,-1.1324 -2.64934,-1.02813 -3.45067,-0.32813 c -0.42,0.288 -0.68667,0.752 -0.816,1.14106 l -4.98,28.59066 c -0.22533,1.27864 0.304,2.11458 2.28133,2.75989"
     id="path4199" /><path
     id="path4195"
     style="fill:#0b335e;fill-opacity:1;fill-rule:nonzero;stroke:none"
     d="m 248.36402,226.13078 c 0.108,-0.26147 0.216,-0.52294 0.31334,-0.7204 l 0.85333,-1.712 l 0.50667,-1.11454 l 0.58933,-1.24893 c 0.492,-1.05107 0.83333,-1.5828 1.28667,-2.0656 c 0.57333,-0.8052 1.47066,-1.00947 1.99466,-0.48907 c 0.432,0.3396 0.64267,0.88907 0.74134,2.07867 c 0.0173,0.24893 0.0347,0.5 -0.0333,0.88227 l -0.88,4.99053 l -6.19733,1.99067 c 0.15733,-0.89587 0.42933,-1.73854 0.82533,-2.5916 m -7.98407,16.31843 l 3.12934,3.19063 c 0.956,0.86146 2.428,1.23594 4.872,0.64376 c 1.65866,-0.33334 3.24266,-1.29063 5.21733,-3.41563 l 0.908,-0.96147 l 0.84533,-0.95624 c 0.92,-1.02494 1.492,-1.83068 1.87867,-2.61974 c 1.12133,-2.1776 1.20533,-3.00427 0.66533,-3.77507 c -0.54133,-0.77187 -1.55866,-0.9344 -2.564,-0.4692 c -1.05466,1.79373 -2.332,3.10147 -6.26533,6.21869 c -0.49467,0.3573 -1.04,0.65626 -1.58533,0.95626 c -1.76,0.90937 -3.12,-0.10574 -2.78667,-2.33908 l 0.472,-3.37974 c 0.18533,-1.40146 3.02533,-2.8468 3.02533,-2.8468 c 5.14667,-1.26933 10.43067,-2.612 10.43067,-2.612 l 1.108,-8.72493 c 0.24133,-1.72147 0.0413,-3.02813 -0.78533,-4.2776 c -0.968,-1.49067 -1.58667,-1.81467 -2.01334,-1.84013 l -0.552,-0.0156 l -1.256,-0.20427 l -3.064,-0.42547 l -0.0613,0.006 c -2.44933,0.27706 -3.892,1.4744 -6.66533,6.37706 c -0.764,1.2016 -1.52534,2.7172 -2.24267,4.35307 c -1.15067,2.6844 -1.86933,5.0136 -2.27467,7.31773 l -1.016,5.75734 c -0.14666,0.83066 -0.12266,1.39733 -0.088,1.89842 c 0.18934,1.36667 0.452,1.975 0.668,2.14427" /><path
     style="fill:#0b335e;fill-opacity:1;fill-rule:nonzero;stroke:none"
     d="m 267.57606,244.91979 l 0.52667,-1.24271 l 0.164,-0.58125 l 0.56133,-1.43437 l 0.67867,-1.75988 l 0.60533,-1.6912 l 0.624,-1.4396 l 0.35734,-0.976 l 0.75333,-1.82974 l 0.912,-2.03333 l 0.43067,-1.0452 l 0.50666,2.34947 l 0.23734,1.80666 l 0.12,0.36667 c 0.0973,0.49587 0.12266,2.44533 0.12266,2.44533 c 0.024,1.25894 0.0707,2.38807 0.0707,2.38807 l 0.14267,0.93176 l 0.10933,0.43229 c 0.024,0.56407 0.036,1.19324 0.048,1.82136 l 4.46267,0.86927 l 1.268,-3.00833 l 0.55066,-1.37028 l 1.21734,-3.06667 l 0.39733,-0.85373 l 1.52933,-3.7864 l 0.23734,-0.65054 l 1.252,-3.2588 l 1.69333,-4.36933 l 1.38133,-3.64787 l 1.252,-3.25733 l 1.18667,-3.25467 l 0.41333,-1.2964 l 0.85734,-2.4036 l -3.98267,-2.54786 l -1.28,3.07026 l -1.14933,2.6828 l -0.85067,2.02814 l -0.31067,0.72133 l -1.088,2.676 l -0.18133,0.3308 l -1.00267,2.54533 l -0.108,0.25987 l -0.912,2.03173 l -0.12933,0.3896 l -0.204,0.4584 l -0.72533,2.01614 l -1.036,2.73746 l -0.092,-0.87506 l -0.092,-0.8728 l 0.009,-0.75627 l 0,-0.6948 c 0.0147,-1.1344 0.18,-4.8652 0.18,-4.8652 c 0.044,-0.94787 0.112,-2.02547 0.112,-2.02547 l 0.0933,-1.5812 l -0.0907,-0.1828 l 0.10666,-0.9532 l 0.0667,-1.0776 l -4.39333,-0.55986 l -0.352,0.59733 l -0.27734,0.52813 l -0.26666,0.4652 l -0.352,0.59734 l -0.40934,0.9188 l -0.39466,0.852 l -0.47067,0.9224 l -0.33467,0.84853 l -3.80533,9.71813 l 0.0653,-1.7692 l 0.084,-0.82653 l -0.0533,-2.1376 l 0.0333,-0.1916 l 0.0893,-1.20413 l 0.0613,-1.39067 l 0.02,-2.2052 l 0.0933,-1.58387 l 0.0453,-0.25466 c 0.22266,-3.35894 0.04,-3.7204 -1.64267,-4.64427 c -0.444,-0.27613 -0.972,-0.4188 -1.57467,-0.49227 c -0.728,-0.0624 -1.08533,0.2204 -1.132,0.47614 l -2.38533,29.93901 z"
     id="path4193" /><path
     id="path4189"
     style="fill:#0b335e;fill-opacity:1;fill-rule:nonzero;stroke:none"
     d="m 311.4814,222.43598 c 0.48666,-1.3652 1.12,-2.87094 2.03866,-4.588 c 1.72934,-3.17454 2.72267,-4.26774 3.47734,-4.712 c 1.176,-0.73334 2.34666,-0.39587 2.57066,0.7828 c 0.0333,0.5 -0.068,1.076 -0.42933,2.43066 c -0.29333,0.96934 -0.50267,1.80627 -0.64933,2.63854 l -1.15067,6.5256 l -0.508,2.87866 c -0.276,1.91454 -0.75733,2.9 -2.20933,4.85467 c -0.624,0.74627 -1.312,1.50107 -2.028,2.06667 c -2.34267,1.77866 -4.02534,1.54893 -4.176,0.30106 c -0.0507,-0.75053 -0.0427,-1.50786 0.0427,-2.33333 c 0.25867,-2.16413 0.38267,-2.86667 0.59734,-3.39067 z m 3.30533,15.45626 c 0.10667,-0.26146 0.27733,-0.52813 0.372,-0.7256 c 0,0 -0.02,1.5136 -0.27867,2.29227 c 0.0907,0.1812 0.256,0.2932 0.35734,0.40933 c 1.224,1.09062 2.55866,0.84634 4.02266,-0.4776 c 0.88534,-0.83333 0.95867,-0.90266 0.972,-0.96666 c 0.036,-1.26254 0.28,-2.98547 1.21067,-7.224 c 0.62267,-2.82547 1.23733,-5.96507 1.88,-9.612 l 1.456,-8.252 l 0.79067,-3.78547 c 1.45866,-7.93693 1.884,-9.99067 2.29066,-11.60107 c 1.736,-6.7 1.86134,-6.712 1.30134,-7.7348 c -0.0787,-0.24386 -0.284,-0.47866 -0.43734,-0.6548 c -1.41866,-1.3864 -3.508,-0.6984 -4.34133,0.88387 c -0.41333,0.6032 -0.628,1.1256 -1.268,3.0084 c -0.43067,1.04533 -0.97467,3.42387 -1.53067,6.93587 l -1.11066,7.3412 l -0.14534,0.83066 l -0.34133,1.22667 l -0.36533,1.73333 l -0.12134,-0.36773 l -0.24933,-0.6708 c -0.48533,-1.09067 -0.80533,-1.37867 -1.724,-1.73867 c -2.31067,-0.8692 -4.63867,0.46774 -8.31867,6.33334 c -2.44533,3.7412 -3.95066,7.4 -4.51466,10.59853 l -1.06134,5.32027 c -0.84,4.42133 -0.19466,6.6932 2.04,8.32506 c 3.87467,2.80932 6.72667,1.9937 9.11467,-1.4276" /><path
     style="fill:#0b335e;fill-opacity:1;fill-rule:nonzero;stroke:none"
     d="m 333.66673,204.81038 c 2.12533,0.5084 4.09066,-0.86094 4.31466,-2.14107 l 1.152,-6.524 c 0.056,-0.31973 0.0387,-0.5708 0.0333,-0.88547 c -0.24267,-2.11973 -2.472,-2.74373 -4.31067,-1.3864 c -0.98933,0.7156 -1.63466,1.5916 -1.89333,3.064 l -0.89733,4.73854 c -0.056,0.31986 -0.0507,0.6344 -0.0347,0.88546 c 0.1,1.18907 0.69067,2.0188 1.636,2.24894"
     id="path4187" /><path
     style="fill:#0b335e;fill-opacity:1;fill-rule:nonzero;stroke:none"
     d="m 328.43999,240.03594 c 0.92667,-0.0187 1.77067,-0.2813 2.49734,-0.91196 l 5.77599,-28.9104 c -0.12,-1.0604 -0.69466,-1.64014 -2.24133,-1.94534 c -1.50533,-0.1828 -2.34133,0.0156 -3.13066,0.6516 c -0.49334,0.3572 -0.82267,0.8296 -1.02667,1.28694 l -4.65333,26.7344 c -0.31467,1.79053 0.68666,3.08954 2.77866,3.09476"
     id="path4185" /><path
     style="fill:#0b335e;fill-opacity:1;fill-rule:nonzero;stroke:none"
     d="m 343.55466,209.80518 c -1.964,2.05986 -3.38534,4.89226 -3.80267,7.95213 c -0.41067,2.6812 -0.0213,4.66253 0.924,6.2812 c 0.644,0.888 0.99067,1.36147 1.32133,1.58387 l 1.28534,1.08546 l 0.86533,0.68014 c 1.53067,1.44013 1.924,2.35053 1.81733,3.3068 c -0.072,1.4532 -1.192,2.5584 -2.304,2.5932 c -0.75066,0.0652 -1.49466,-0.24787 -2.276,-1.06147 c -0.29466,-0.41453 -0.67733,-0.69573 -1.04666,-1.04107 c -1.66,-1.05213 -3.25067,-0.40946 -4.07334,1.8036 c -0.57066,1.49894 0.0387,2.58027 3.39334,4.4912 c 3.30533,1.85147 6.408,1.01294 9.97066,-3.14013 c 3.23334,-3.6844 3.196,-6.95627 -0.22933,-9.86667 l -1.80933,-1.6068 l -0.49467,-0.33493 c -2.47467,-2.36667 -2.83067,-4.53947 -1.88,-6.44787 c 2.04133,-3.89586 3.052,-4.74013 3.768,-4.612 c 0.35333,0.0932 0.54533,0.39067 0.51333,0.5828 c -0.0453,0.25574 -0.11466,0.6412 -0.15733,0.89587 l -0.27733,1.22133 c -0.344,1.60414 -0.36,3.43227 -0.36,3.43227 c 0.0293,0.18653 0.12,0.36933 0.12,0.36933 c 0.096,0.4932 0.268,0.91974 0.44,1.34534 l 3.688,-0.32294 c 0.424,-0.66666 0.71333,-1.2584 1.01466,-1.91306 c 0.52667,-1.24427 0.66267,-2.012 0.91467,-3.79894 l 0.0547,-1.012 l 0.13066,-1.0828 c 0.0613,-1.39066 -1.22,-2.85306 -1.22,-2.85306 c -1.484,-1.00427 -2.98133,-1.9428 -2.98133,-1.9428 c -0.432,-0.34 -1.60933,-0.30094 -3.75467,0.7052 c -1.21466,0.61093 -2.34133,1.4016 -3.55466,2.7068"
     id="path4183" /><path
     id="path4179"
     style="fill:#0b335e;fill-opacity:1;fill-rule:nonzero;stroke:none"
     d="m 368.54669,208.37344 c 0.50533,-0.42293 1.35866,-0.3708 2.20533,0.75214 c 0.94533,1.61706 0.576,5.80613 -3.072,13.24266 c -0.46133,0.85987 -0.92,1.71827 -1.44,2.58227 l -0.19333,0.3948 l -2.19467,3.71973 c -0.27733,0.52814 -0.59467,0.93334 -0.988,1.4084 c -0.24267,0.33694 -0.80667,0.3864 -1.10133,-0.0297 l 2.95333,-18.83853 z m -15.88267,42.95832 c -0.248,1.40834 1.26533,2.59897 3.57733,1.70313 c 0.85734,-0.32708 1.42534,-0.75468 1.912,-1.42709 l 2.99734,-15.94529 c 0.28933,0.1 0.528,0.14427 0.81866,0.24267 c 2.66934,0.2084 3.31334,-0.28907 7.596,-6.0812 c 1.4,-2.012 3.01067,-4.86147 4.37467,-8.06667 c 4.23867,-10.0708 3.56267,-13.91613 -1.05467,-16.34693 c -1.24,-0.64627 -2.62266,-0.84107 -4.13466,-0.64534 c -1.06,0.0939 -2.22134,0.38294 -3.29867,0.9188 l 0.292,-2.35573 c 0.11733,-1.0188 -0.47333,-1.84787 -2.15733,-2.07867 c -1.67067,-0.29626 -2.59734,0.4156 -2.9,2.1428 l -1.58534,9.33427 l -2.56533,3.37347 l 1.78933,2.42653 z" /><path
     style="fill:#0b335e;fill-opacity:1;fill-rule:nonzero;stroke:none"
     d="m 381.73735,233.73598 l 9.34267,-46.35574 c 0.37867,-1.79479 -0.36933,-2.80319 -2.13467,-2.89893 c -1.64266,-0.10946 -2.864,0.8812 -3.084,1.7812 l -8.464,44.51453 c -0.52533,2.62814 -0.28533,3.36307 1.84,3.86987 c 1.53334,0.3692 2.37467,-0.2084 2.5,-0.91093"
     id="path4177" /><path
     id="path4173"
     style="fill:#0b335e;fill-opacity:1;fill-rule:nonzero;stroke:none"
     d="m 399.91202,226.28798 c -0.112,0.64013 -0.75333,1.136 -3.452,2.1292 c -0.33467,0.15466 -0.784,0.25626 -1.03333,0.27866 c -1.26267,0.17347 -1.94,0.1692 -2.44534,-0.10106 c -0.672,-0.3828 -0.688,-1.32547 0.208,-2.22294 c 0.8,-0.7 1.43067,-1.13333 2.06134,-1.56506 l 1.124,-0.79214 l 0.19866,-0.0797 c 0.284,-0.2136 0.556,-0.36413 0.81734,-0.44947 c 1.28933,-0.67866 1.68666,-0.84013 2.248,-0.8896 c 0.676,0.003 0.98533,0.35467 0.872,0.9948 z m -7.63333,-8.02387 c 0.064,-0.005 0.17866,0.0463 0.22933,0.1052 c 0.404,0.15307 0.852,0.052 1.108,-0.348 l 1.68933,-2.60413 l 0.976,-1.34534 l 1.08267,-1.6068 l 0.776,-1.26506 l 1.35733,-1.75627 c 0.15867,-0.20253 0.328,-0.4692 0.5,-0.73587 c 1.44534,-1.57613 1.66667,-1.78386 2.2,-2.01986 c 0.34667,-0.2172 0.836,-0.19894 1.01867,0.16413 c 0.132,0.30253 0.21067,0.54787 0.15333,0.86773 l -0.11733,1.0176 l -0.168,0.96 l -1.45067,7.87334 c -0.73866,0.003 -1.376,0.1224 -2.14666,0.31466 c -1.40934,0.312 -2.41467,0.77707 -4.06267,1.74107 c -0.60667,0.30427 -1.15333,0.60427 -1.65867,1.02667 c -3.49733,2.38426 -5.03333,4.4708 -5.43466,7.088 c -0.12267,1.39893 0.0613,2.4536 0.56933,3.41453 c 1.77733,3.1828 3.97733,3.62027 7.94667,1.69893 c 2.02,-0.9948 2.86133,-0.88013 3.41066,0.2052 c 0.10134,0.1172 0.18,0.36147 0.34667,0.47347 c 1.06933,0.91467 2.456,0.7308 3.42533,-0.23587 l 2.608,-14.08546 c 0.168,-0.95987 0.904,-3.73174 0.904,-3.73174 c 0.38534,-1.4828 0.77867,-3.02973 0.77867,-3.02973 l 0.10133,-0.57453 c 0.64134,-2.576 0.78134,-3.72134 0.836,-4.7348 c 0.048,-2.712 -0.64133,-4.03707 -1.91466,-4.4932 l -1.172,-0.33867 l -2.74667,-1.5228 c -0.27867,-0.16413 -0.45467,-0.212 -0.69333,-0.2548 c -1.67067,-0.29427 -2.94934,0.32147 -4.03334,1.92813 l -0.43733,0.7324 l -0.47467,0.60774 l -1.54933,2.15053 l -0.49867,0.736 l -0.66933,1.00573 l -1.70133,2.6676 c -1.83867,2.74174 -2.21334,3.46667 -2.85734,5.03494 c -0.32933,0.47026 -0.28266,0.90786 0.13867,1.3104 z" /><path
     style="fill:#0b335e;fill-opacity:1;fill-rule:nonzero;stroke:none"
     d="m 412.81469,211.74264 l -0.224,1.97347 l -0.20267,1.84373 l -0.0653,1.0776 l -0.0733,0.76094 l 0.0133,2.0152 l -0.032,0.88386 l -0.10534,2.34107 c -0.0613,0.6964 0.0133,1.3204 0.0133,2.012 c 0.18666,3.13333 0.35333,3.93747 0.72266,4.2844 l 0.15334,0.1744 l 0.644,0.88813 c 0.256,0.2932 0.592,0.83067 1.01866,1.54947 l -0.68,1.75987 l -0.33333,0.84786 l -0.91733,2.4104 l -0.74667,2.14427 l -0.204,0.45893 l -0.92933,2.47447 l -0.17467,0.64531 l -1.04933,2.8 l -0.49734,1.42917 l -0.544,1.68541 c -0.13333,1.4599 0.45334,2.66823 1.932,3.3573 c 0.79467,0.37186 1.7,0.48124 2.68267,0.14426 l 21.71067,-54.36672 l -4.46534,-2.2536 l -1.504,1.2016 l -8.77066,23.56774 l -0.516,1.17853 c -0.19467,0.3948 -0.364,0.66307 -0.53334,0.92813 c -0.0853,0.13334 -0.35866,0.28387 -0.57333,0.1136 c -0.39333,-0.21773 -0.58267,-0.8932 -0.42133,-3.5536 c 0.11466,-0.6396 0.112,-1.33186 0.31333,-4.56093 l 0.12533,-3.85373 l -0.005,-0.31454 c 0.02,-1.5136 0.268,-3.6136 0.268,-3.6136 c -0.0187,-0.25053 0.0493,-0.6344 0.0493,-0.6344 l 0.276,-2.60666 c 0.292,-2.35467 -0.904,-3.25894 -4.05066,-2.85574 c -0.252,0.0197 -0.57467,0.11294 -0.83467,0.1968 l -1.29467,10.12814 z"
     id="path4171" /><path
     id="path4167"
     style="fill:#0b335e;fill-opacity:1;fill-rule:nonzero;stroke:none"
     d="m 453.74269,209.98904 c 0.48666,-1.36506 1.12,-2.8692 2.04,-4.58746 c 1.728,-3.17507 2.72133,-4.26987 3.47733,-4.7136 c 1.17467,-0.73227 2.344,-0.3932 2.568,0.78546 c 0.0347,0.5 -0.0653,1.07454 -0.428,2.4292 c -0.29333,0.9708 -0.50267,1.80774 -0.64933,2.63854 l -1.152,6.52546 l -0.508,2.87867 c -0.276,1.91453 -0.75734,2.9016 -2.208,4.85467 c -0.62534,0.74693 -1.31067,1.5 -2.02667,2.06666 c -2.344,1.78027 -4.028,1.55054 -4.176,0.30267 c -0.052,-0.75053 -0.0413,-1.50787 0.0413,-2.3344 c 0.26,-2.16413 0.38267,-2.86827 0.59867,-3.3912 z m 3.304,15.45787 c 0.10933,-0.26147 0.27866,-0.52813 0.37466,-0.72707 c 0,0 -0.02,1.51347 -0.28133,2.29214 c 0.092,0.1828 0.25733,0.2948 0.36,0.4104 c 1.22133,1.0896 2.55867,0.84693 4.02267,-0.47867 c 0.88533,-0.83333 0.95866,-0.90253 0.96933,-0.96667 c 0.0373,-1.2624 0.28133,-2.98386 1.21333,-7.2224 c 0.62,-2.82653 1.23467,-5.96666 1.87867,-9.61346 l 1.45466,-8.25214 l 0.792,-3.78493 c 1.46134,-7.93747 1.88267,-9.99053 2.292,-11.6 c 1.73467,-6.70146 1.85867,-6.71346 1.30134,-7.73586 c -0.08,-0.24267 -0.28534,-0.4792 -0.44,-0.6536 c -1.41467,-1.38814 -3.50534,-0.7 -4.33867,0.8828 c -0.41466,0.60413 -0.62933,1.12653 -1.27066,3.00933 c -0.42934,1.04533 -0.97067,3.4224 -1.52934,6.93586 l -1.10933,7.34014 l -0.148,0.83186 l -0.33867,1.22654 l -0.36666,1.73226 l -0.12,-0.36826 l -0.25067,-0.67027 c -0.484,-1.0912 -0.804,-1.3776 -1.724,-1.73907 c -2.30933,-0.86773 -4.63733,0.4692 -8.31733,6.33334 c -2.444,3.7416 -3.95067,7.4 -4.51467,10.59893 l -1.06133,5.32133 c -0.84267,4.41987 -0.19734,6.6932 2.04,8.324 c 3.872,2.8104 6.724,1.9932 9.112,-1.42653" /><path
     id="path4163"
     style="fill:#0b335e;fill-opacity:1;fill-rule:nonzero;stroke:none"
     d="m 477.07205,206.12161 c 0.108,-0.25987 0.21466,-0.52293 0.31066,-0.71973 l 0.856,-1.71254 l 0.50534,-1.11453 l 0.58933,-1.24893 c 0.492,-1.05107 0.83333,-1.5844 1.28667,-2.06574 c 0.57333,-0.8052 1.47066,-1.00773 1.99466,-0.48906 c 0.432,0.3412 0.64267,0.88906 0.74134,2.0772 c 0.016,0.2504 0.0347,0.50146 -0.0333,0.88373 l -0.88,4.99067 l -6.19733,1.9912 c 0.15867,-0.8964 0.42933,-1.73907 0.82667,-2.59227 m -7.98674,16.3185 l 3.13067,3.19067 c 0.956,0.86146 2.42666,1.23586 4.87066,0.64373 c 1.66,-0.33333 3.244,-1.29067 5.21867,-3.41467 l 0.908,-0.9624 l 0.84533,-0.95626 c 0.92,-1.024 1.49067,-1.8308 1.87867,-2.61987 c 1.12133,-2.1776 1.204,-3.00413 0.664,-3.7744 c -0.54,-0.7724 -1.55733,-0.93493 -2.56267,-0.46987 c -1.05466,1.79374 -2.33333,3.1016 -6.26533,6.21774 c -0.49467,0.3584 -1.04,0.65733 -1.58533,0.95733 c -1.76134,0.90933 -3.12,-0.1052 -2.78667,-2.33747 l 0.47067,-3.37973 c 0.18666,-1.4032 3.02666,-2.8484 3.02666,-2.8484 c 5.14534,-1.26773 10.42934,-2.61307 10.42934,-2.61307 l 1.10933,-8.72546 c 0.24133,-1.72147 0.0413,-3.02667 -0.784,-4.2772 c -0.96933,-1.488 -1.588,-1.81347 -2.01467,-1.83907 l -0.55333,-0.0145 l -1.25467,-0.2052 l -3.06533,-0.42547 l -0.06,0.006 c -2.45067,0.27707 -3.89333,1.4744 -6.664,6.37854 c -0.76533,1.2 -1.52533,2.71466 -2.244,4.3516 c -1.152,2.6844 -1.87067,5.0136 -2.27467,7.31773 l -1.016,5.75733 c -0.14666,0.83067 -0.124,1.39574 -0.0893,1.89734 c 0.18933,1.36933 0.452,1.976 0.668,2.14533" /><path
     style="fill:#0b335e;fill-opacity:1;fill-rule:nonzero;stroke:none"
     d="m 496.31742,196.43881 c -1.96267,2.06147 -3.38533,4.8948 -3.80133,7.95373 c -0.412,2.6812 -0.024,4.6624 0.92133,6.2812 c 0.64533,0.888 0.992,1.36147 1.32267,1.58547 l 1.284,1.08373 l 0.86666,0.67974 c 1.52934,1.44013 1.92267,2.35106 1.81734,3.30573 c -0.072,1.45467 -1.192,2.55987 -2.304,2.59427 c -0.75067,0.0656 -1.49467,-0.2464 -2.276,-1.05987 c -0.29467,-0.4156 -0.676,-0.69747 -1.04667,-1.04267 c -1.66133,-1.0516 -3.25067,-0.40626 -4.07333,1.80574 c -0.57067,1.4984 0.0387,2.57853 3.39333,4.48906 c 3.30533,1.852 6.40667,1.01454 9.97067,-3.14013 c 3.23466,-3.68387 3.19466,-6.95573 -0.23067,-9.86773 l -1.808,-1.6052 l -0.49467,-0.33494 c -2.476,-2.364 -2.83066,-4.53853 -1.88,-6.44946 c 2.04267,-3.8948 3.052,-4.73854 3.76934,-4.612 c 0.35066,0.0948 0.54533,0.3932 0.512,0.58706 c -0.0467,0.25307 -0.11467,0.63694 -0.15867,0.8932 l -0.276,1.22134 c -0.344,1.6068 -0.35867,3.43173 -0.35867,3.43173 c 0.028,0.18707 0.11734,0.36827 0.11734,0.36827 c 0.0987,0.4948 0.27066,0.9224 0.44133,1.3464 l 3.688,-0.3224 c 0.42533,-0.66667 0.71333,-1.25894 1.01467,-1.91467 c 0.52533,-1.24267 0.66266,-2.01093 0.91466,-3.79627 l 0.0547,-1.01306 l 0.13067,-1.0812 c 0.06,-1.39067 -1.22134,-2.85214 -1.22134,-2.85214 c -1.48266,-1.00413 -2.97866,-1.94426 -2.97866,-1.94426 c -0.43334,-0.3412 -1.60934,-0.30107 -3.756,0.70573 c -1.216,0.6088 -2.34134,1.40253 -3.55467,2.7036"
     id="path4161" /><path
     style="fill:#0b335e;fill-opacity:1;fill-rule:nonzero;stroke:none"
     d="m 515.80545,188.87628 c 2.12667,0.5068 4.092,-0.86134 4.31733,-2.14107 l 1.15067,-6.5256 c 0.0547,-0.32026 0.0387,-0.5692 0.032,-0.88373 c -0.24133,-2.1204 -2.46933,-2.7428 -4.31067,-1.38707 c -0.98666,0.71614 -1.63333,1.59227 -1.89333,3.06307 l -0.896,4.7396 c -0.0573,0.32027 -0.052,0.63333 -0.0333,0.8844 c 0.0987,1.188 0.68933,2.01813 1.63333,2.2504"
     id="path4159" /><path
     style="fill:#0b335e;fill-opacity:1;fill-rule:nonzero;stroke:none"
     d="m 510.58015,224.10188 c 0.92533,-0.0177 1.772,-0.28174 2.49866,-0.91254 l 5.77467,-28.9104 c -0.12,-1.06146 -0.69467,-1.63853 -2.24133,-1.94533 c -1.508,-0.18387 -2.34134,0.0147 -3.13067,0.65053 c -0.49467,0.3588 -0.82267,0.82814 -1.02667,1.28694 l -4.652,26.7344 c -0.316,1.79226 0.684,3.0896 2.77734,3.0964"
     id="path4157" /><path
     id="path4153"
     style="fill:#0b335e;fill-opacity:1;fill-rule:nonzero;stroke:none"
     d="m 531.85215,207.81644 c 0,0 -0.69067,2.5172 -1.20134,3.3172 l -0.084,0.13333 l -2.06666,2.63747 c -0.708,0.88133 -1.41734,1.76093 -2.292,2.5308 c -0.42,0.28907 -1.044,0.34373 -1.33067,-0.13493 c -0.43733,-0.65467 -0.44533,-2.35467 0.868,-6.312 l 1.788,-5.2588 l 0.51067,-1.4932 c 0.29333,-0.96934 0.63866,-1.88134 1.172,-2.8104 c 1.66133,-3.48294 2.808,-4.4032 3.984,-4.4428 c 0.68533,-0.0604 1.13733,0.5308 0.99066,1.36253 c 0,0 -1.22666,5.20933 -2.33866,10.4708 m -8.37734,-7.6443 c -0.67866,1.75987 -0.98533,2.7948 -1.11866,3.56307 l -0.012,0.0635 c -0.23734,1.3428 -0.81467,3.2204 -1.748,6.07346 c -0.45467,1.17347 -0.544,1.68547 -0.62267,2.13334 l -0.0213,0.12653 l 0.0173,0.25107 c -0.164,0.58133 -0.27733,1.22133 -0.32933,1.85573 c -0.15067,1.20947 -0.0627,2.46147 0.18266,3.512 c 0.844,3.5776 2.92134,4.72027 5.24,4.13853 c 1.356,-0.37026 1.99867,-0.86773 3.91067,-2.98746 l 1.84933,-2.11507 l 0.896,-0.89747 l -1.77333,11.11507 c -0.0573,0.31987 -0.12533,0.70373 -0.18,1.02507 c -0.77333,4.03493 -2.62533,5.45626 -5.51467,4.388 c -0.12266,0.009 -1.81866,-0.85054 -2.03466,-1.01974 c -0.216,-0.17093 -0.44267,-0.2776 -0.596,-0.45213 l -1.60534,-1.37187 c -1.268,-0.14013 -2.28933,0.76774 -2.424,2.2292 c -0.0493,1.32547 0.32134,2.364 1.136,2.98534 l 4.77867,3.6136 c 1.296,1.01973 3.33067,0.65306 6.476,-1.82707 c 3.552,-2.70373 4.60667,-4.49747 5.628,-9.93853 c 0.26533,-1.15894 0.424,-2.74694 0.58533,-4.7136 l 0.13867,-1.83694 l 0.028,-1.2 l 0.13333,-2.15373 l 0.11734,-1.01813 c 0.096,-0.8896 0.49733,-3.5068 0.49733,-3.5068 c 0.18,-1.024 0.372,-2.112 0.372,-2.112 l 0.33867,-1.9188 l 0.388,-1.85987 l 0.28133,-1.6 l 0.28933,-1.28533 l 0.52,-2.24947 l 0.58134,-2.25573 l 0.33866,-1.2256 l 0.516,-1.87187 l 0.56,-2.12813 l -5.33333,-1.864 l -1.456,-0.8172 c -3.38933,-1.7188 -7.42667,0.5864 -11.03067,9.15306" /><path
     style="fill:#0b335e;fill-opacity:1;fill-rule:nonzero;stroke:none"
     d="m 543.45881,222.60964 c 1.85334,0.65733 3.08,-0.0171 3.36134,-1.61613 c 0.14133,-1.14627 0.24266,-2.41294 0.34933,-3.3692 l 0.22533,-1.27867 l 0.32667,-1.85627 c 0.412,-1.98746 0.72933,-3.0864 0.72933,-3.0864 c 0.38267,-1.4828 0.75734,-2.9 0.75734,-2.9 l 0.1,-0.57613 l 0.34533,-1.6052 l 0.312,-1.412 c 0.70667,-2.95987 1.11333,-3.8776 2.28267,-5.61707 c 0.29333,-0.96986 0.616,-1.7548 0.98,-2.41626 l 0.0107,-0.064 l 1.53734,-2.0864 c 0.352,-0.59747 0.88,-1.14854 1.396,-1.63334 c 0.36933,-0.34853 0.80666,-0.38546 1.052,-0.0297 c 0.38533,0.5964 0.536,1.84267 -0.24934,6.63493 c -0.056,0.31974 -0.112,0.64 -0.15733,0.89574 l -3.72133,17.26933 c 0.308,0.35107 0.768,0.876 0.768,0.876 c 0.55733,0.32973 1.13866,0.5308 1.13866,0.5308 c 0.28934,0.10147 0.70534,0.19053 0.99467,0.29053 c 1.888,0.46667 2.70533,0.0161 2.81733,-0.62386 l 5.432,-26.6136 c 0.36667,-1.73334 -0.10266,-3.26667 -1.32533,-4.35574 c -3.13467,-2.81199 -7.36667,-1.49586 -9.86667,2.56414 c -0.204,0.45826 -0.51066,0.8 -0.652,1.25306 l -1.07466,0.15734 l -0.484,-1.09174 c -0.092,-0.1812 -0.19334,-0.29733 -0.42267,-0.40413 c -1.46,-1.13173 -2.648,-1.02653 -3.44933,-0.32813 c -0.42,0.2896 -0.68534,0.7536 -0.816,1.14266 l -4.98,28.5896 c -0.22534,1.27974 0.30266,2.11467 2.28266,2.75987"
     id="path18" /></g>
</svg>