<?xml version="1.0" encoding="UTF-8"?>
<svg version="1.1" xmlns="http://www.w3.org/2000/svg" xmlns:xlink="http://www.w3.org/1999/xlink"
     viewBox="0 0 9048 9524" width="47.501mm" height="50mm">

<defs>

</defs>

<g transform="matrix(1,0,0,-1,0,9524)">

<path style="fill:#E8E8E8"
      d="M4523,4285 C3079,4285,1904,5460,1904,6904 S3079,9523,4523,9523 S7142,8349,7142,6904 S5968,4285,4523,4285 Z
         M4523,9047 C3342,9047,2380,8086,2380,6904 S3342,4761,4523,4761 C5705,4761,6666,5723,6666,6904 S5705,9047,4523,9047 Z"/>

<path style="fill:#E8E8E8"
      d="M8333,0 L714,0 C320,0,0,320,0,714 C0,746,6,1516,583,2285 C919,2733,1378,3089,1949,3342 C2646,3652,3512,3809,4523,3809 S6400,3652,7098,3342
         C7669,3088,8128,2733,8464,2285 C9040,1516,9047,746,9047,714 C9047,320,8727,0,8333,0 Z
         M4523,3333 C2863,3333,1638,2879,980,2020 C487,1377,476,719,476,713 C476,582,582,476,714,476 L8333,476 C8464,476,8571,582,8571,714
         C8571,719,8560,1377,8067,2020 C7409,2879,6183,3333,4523,3333 Z"/>

</g>

</svg>
